<svg xmlns="http://www.w3.org/2000/svg" viewBox="0 0 1024 1024" width="1024" height="1024">

  <defs>
    <linearGradient id="ostGrad" x1="512" y1="120" x2="512" y2="904" gradientUnits="userSpaceOnUse">
      <stop offset="0%" stop-color="#84D23F">
        <animate attributeName="stop-color" values="#84D23F;#A8F45B;#84D23F" dur="6s" begin="3.1s" repeatCount="indefinite"/>
      </stop>
      <stop offset="38%" stop-color="#55BB3C">
        <animate attributeName="stop-color" values="#55BB3C;#78D948;#55BB3C" dur="6s" begin="3.5s" repeatCount="indefinite"/>
      </stop>
      <stop offset="72%" stop-color="#2CA53B">
        <animate attributeName="stop-color" values="#2CA53B;#44C146;#2CA53B" dur="6s" begin="3.9s" repeatCount="indefinite"/>
      </stop>
      <stop offset="100%" stop-color="#11953A">
        <animate attributeName="stop-color" values="#11953A;#24AA42;#11953A" dur="6s" begin="4.3s" repeatCount="indefinite"/>
      </stop>
      <animate attributeName="x1" values="512;360;512;664;512" dur="8s" begin="3.1s" repeatCount="indefinite"/>
      <animate attributeName="x2" values="512;664;512;360;512" dur="8s" begin="3.1s" repeatCount="indefinite"/>
    </linearGradient>
    <radialGradient id="mistGrad" cx="50%" cy="50%" r="50%">
      <stop offset="0%" stop-color="#A8F45B" stop-opacity="0.26"/>
      <stop offset="55%" stop-color="#55BB3C" stop-opacity="0.10"/>
      <stop offset="100%" stop-color="#55BB3C" stop-opacity="0"/>
    </radialGradient>
    <filter id="softShadow" x="-10%" y="-10%" width="120%" height="120%">
      <feDropShadow dx="0" dy="2" stdDeviation="4" flood-color="#0b7d2e" flood-opacity="0.12"/>
    </filter>
    <filter id="mistBlur" x="-30%" y="-30%" width="160%" height="160%">
      <feGaussianBlur stdDeviation="28"/>
    </filter>
  </defs>


  <style>
    .fillshape { fill: url(#ostGrad); opacity: 0; animation: fillIn 0.5s ease forwards; }
    .outline { fill: none; stroke: url(#ostGrad); stroke-width: 6; stroke-linecap: round; stroke-linejoin: round; stroke-dasharray: 1000; stroke-dashoffset: 1000; animation: draw 1.0s ease forwards; }
    .bgpulse { animation: settle 0.8s ease-out 2.1s forwards; opacity: 0.98; transform-origin: 50% 50%; }
    .p1.outline { animation-delay: 0.00s; }
    .p1.fillshape { animation-delay: 2.50s; }
    .p2.outline { animation-delay: 0.35s; }
    .p2.fillshape { animation-delay: 1.50s; }
    .p3.outline { animation-delay: 0.95s; }
    .p3.fillshape { animation-delay: 1.55s; }
    .p4.outline { animation-delay: 1.30s; }
    .p4.fillshape { animation-delay: 1.85s; }
    .p5.outline { animation-delay: 1.60s; }
    .p5.fillshape { animation-delay: 2.05s; }
    .mistLayer { opacity: 0; animation: mistReveal 1.1s ease 3.1s forwards; }
    .mistPuff { fill: url(#mistGrad); filter: url(#mistBlur); transform-origin: 50% 50%; }
    .mistPuff.one { animation: mistOne 9s ease-in-out 3.2s infinite; }
    .mistPuff.two { animation: mistTwo 11s ease-in-out 3.4s infinite; }
    .mistPuff.three { animation: mistThree 10s ease-in-out 3.6s infinite; }
    @keyframes draw { to { stroke-dashoffset: 0; } }
    @keyframes fillIn { from { opacity: 0; } to { opacity: 1; } }
    @keyframes mistReveal { from { opacity: 0; } to { opacity: 0.72; } }
    @keyframes mistOne {
      0%, 100% { transform: translate(-18px, 10px) scale(0.96); opacity: 0.34; }
      50% { transform: translate(28px, -22px) scale(1.06); opacity: 0.52; }
    }
    @keyframes mistTwo {
      0%, 100% { transform: translate(24px, -8px) scale(1); opacity: 0.22; }
      50% { transform: translate(-32px, 24px) scale(1.12); opacity: 0.42; }
    }
    @keyframes mistThree {
      0%, 100% { transform: translate(-8px, -18px) scale(1.03); opacity: 0.18; }
      50% { transform: translate(20px, 18px) scale(0.94); opacity: 0.36; }
    }
    @keyframes settle {
      0% { transform: scale(1); }
      40% { transform: scale(1.012); }
      100% { transform: scale(1); }
    }
  </style>

<rect width="1024" height="1024" fill="white"/>
<g class="mistLayer">
  <ellipse class="mistPuff one" cx="375" cy="645" rx="170" ry="82"/>
  <ellipse class="mistPuff two" cx="650" cy="360" rx="150" ry="76"/>
  <ellipse class="mistPuff three" cx="525" cy="540" rx="210" ry="96"/>
</g>
<g class="bgpulse" filter="url(#softShadow)">
<path d="M890.450317,557.293579   C885.818665,585.396362 878.605042,612.350464 868.580933,638.549011   C847.362305,694.005554 815.426941,742.358643 773.060425,783.983398   C733.377319,822.971680 687.932068,852.801819 635.497559,871.578674   C603.394287,883.075012 570.372253,890.417358 536.187561,892.488159   C436.814789,898.507935 350.082031,866.936951 273.724792,804.564209   C239.779953,776.836304 210.886078,744.487488 187.955292,707.055420   C161.049988,663.135315 142.503647,615.917053 134.139313,564.996399   C129.792084,538.531250 127.101952,511.806427 127.818039,484.943573   C129.896408,406.977386 151.931412,335.144836 195.314072,270.159363   C229.004883,219.691895 272.283417,179.270401 324.930267,149.125275   C352.326996,133.438156 381.478790,121.807457 412.067169,113.726494   C443.611420,105.393021 475.694611,100.802963 508.233856,100.287354   C532.724121,99.899300 557.080566,102.475273 581.232056,106.925674   C654.610718,120.447151 718.581116,152.402954 772.816833,203.793396   C819.984985,248.487091 853.252563,301.956116 874.157654,363.295074   C883.528076,390.789490 889.859314,419.002502 892.977600,447.866852   C896.024170,476.067200 896.389038,504.314453 893.530701,532.602661   C892.710144,540.723877 891.586304,548.781555 890.450317,557.293579  M493.830963,855.638916   C516.812683,855.957458 539.692200,855.563599 562.537354,852.001465   C607.005005,845.067932 647.979309,829.240417 685.860901,805.251648   C721.839417,782.468079 752.395142,753.670959 778.509155,720.113220   C825.104187,660.236145 851.821777,592.646912 856.579834,516.763367   C859.335693,472.810760 854.297791,429.632172 841.035706,387.591217   C820.711304,323.162506 785.536438,268.261566 734.343018,223.962067   C680.805542,177.634247 618.278809,151.406357 548.252991,143.685272   C508.795807,139.334686 469.463440,142.255203 430.736755,151.855927   C355.503998,170.506836 293.472717,210.008774 245.036591,270.323242   C197.559021,329.444122 171.852264,397.422791 166.521149,472.920990   C164.213943,505.595245 166.801956,538.138672 173.730087,570.225647   C187.544922,634.207703 216.626511,690.348755 260.949249,738.489319   C308.992676,790.670959 366.331268,827.956482 435.373444,846.168152   C454.234314,851.143127 473.531769,853.608826 493.830963,855.638916  z" class="outline p1" pathLength="1000"/>
<path d="M890.450317,557.293579   C885.818665,585.396362 878.605042,612.350464 868.580933,638.549011   C847.362305,694.005554 815.426941,742.358643 773.060425,783.983398   C733.377319,822.971680 687.932068,852.801819 635.497559,871.578674   C603.394287,883.075012 570.372253,890.417358 536.187561,892.488159   C436.814789,898.507935 350.082031,866.936951 273.724792,804.564209   C239.779953,776.836304 210.886078,744.487488 187.955292,707.055420   C161.049988,663.135315 142.503647,615.917053 134.139313,564.996399   C129.792084,538.531250 127.101952,511.806427 127.818039,484.943573   C129.896408,406.977386 151.931412,335.144836 195.314072,270.159363   C229.004883,219.691895 272.283417,179.270401 324.930267,149.125275   C352.326996,133.438156 381.478790,121.807457 412.067169,113.726494   C443.611420,105.393021 475.694611,100.802963 508.233856,100.287354   C532.724121,99.899300 557.080566,102.475273 581.232056,106.925674   C654.610718,120.447151 718.581116,152.402954 772.816833,203.793396   C819.984985,248.487091 853.252563,301.956116 874.157654,363.295074   C883.528076,390.789490 889.859314,419.002502 892.977600,447.866852   C896.024170,476.067200 896.389038,504.314453 893.530701,532.602661   C892.710144,540.723877 891.586304,548.781555 890.450317,557.293579  M493.830963,855.638916   C516.812683,855.957458 539.692200,855.563599 562.537354,852.001465   C607.005005,845.067932 647.979309,829.240417 685.860901,805.251648   C721.839417,782.468079 752.395142,753.670959 778.509155,720.113220   C825.104187,660.236145 851.821777,592.646912 856.579834,516.763367   C859.335693,472.810760 854.297791,429.632172 841.035706,387.591217   C820.711304,323.162506 785.536438,268.261566 734.343018,223.962067   C680.805542,177.634247 618.278809,151.406357 548.252991,143.685272   C508.795807,139.334686 469.463440,142.255203 430.736755,151.855927   C355.503998,170.506836 293.472717,210.008774 245.036591,270.323242   C197.559021,329.444122 171.852264,397.422791 166.521149,472.920990   C164.213943,505.595245 166.801956,538.138672 173.730087,570.225647   C187.544922,634.207703 216.626511,690.348755 260.949249,738.489319   C308.992676,790.670959 366.331268,827.956482 435.373444,846.168152   C454.234314,851.143127 473.531769,853.608826 493.830963,855.638916  z" class="fillshape p1"/>
<path d="M703.288635,417.357330   C686.869446,428.939209 669.117798,434.578278 649.192200,434.445129   C599.531555,434.113281 549.867310,434.346344 500.204498,434.293152   C488.290863,434.280365 478.135010,426.842865 475.777863,416.679993   C472.053406,400.621948 483.280731,386.759521 500.273926,386.724457   C537.604309,386.647491 574.934937,386.705780 612.265503,386.708679   C618.431702,386.709167 624.598816,386.640594 630.763916,386.723389   C642.630554,386.882751 654.153564,386.811859 666.001160,390.819336   C683.967224,396.896484 699.450256,389.597900 711.266296,375.424164   C725.187805,358.724823 725.622192,332.476227 712.912354,314.830139   C694.502991,289.270935 657.060059,292.015869 641.309814,320.129242   C638.121033,325.821045 635.711914,331.828949 635.100952,338.445862   C634.938721,340.203247 634.742065,342.057434 633.549500,343.641724   C631.199707,343.056244 630.813232,340.835785 629.836243,339.233459   C614.837524,314.633698 596.718445,292.853302 572.616211,276.629089   C550.742310,261.904816 526.657104,253.655991 500.208710,252.012070   C466.291382,249.903915 435.353668,257.969574 408.304962,278.716217   C383.805756,297.507416 369.089600,322.438843 365.246979,353.231842   C360.323090,392.689850 372.334259,426.201111 401.874451,453.053223   C411.667999,461.955597 423.401672,468.148621 434.635834,474.986877   C464.798096,493.346588 495.767426,510.425415 524.565308,530.953796   C546.057678,546.274597 565.155457,563.992554 577.741821,587.697571   C590.806519,612.303589 596.360229,638.379883 593.490173,666.272217   C590.615601,694.208618 580.168884,718.695984 561.384949,739.549683   C540.751404,762.456848 514.892334,776.089355 484.658325,781.014282   C443.273895,787.755493 404.613922,780.375854 370.234802,755.720337   C362.751465,750.353516 356.216675,748.119019 346.824188,748.989563   C298.673035,753.453003 260.887360,718.919617 255.179398,675.511353   C250.960266,643.425232 262.185577,616.013245 287.911682,596.190857   C333.842987,560.800049 398.838074,580.411133 418.090820,635.075195   C426.391724,658.643860 424.582794,681.929871 413.378113,704.384949   C409.794342,711.567139 410.079102,712.849731 416.915375,716.687012   C458.742310,740.164917 515.717529,725.006775 533.913818,677.453491   C543.897644,651.362183 538.887268,627.354004 521.223083,605.967773   C509.475067,591.744263 494.178253,581.843384 478.760193,572.200928   C448.675537,553.385986 417.641418,536.119995 388.030090,516.526550   C358.368134,496.899658 334.379700,472.251770 319.659485,439.436523   C311.549103,421.356323 307.140289,402.374542 305.575897,382.566772   C303.593964,357.473114 307.746887,333.391541 316.807434,310.205475   C328.201843,281.046997 346.352386,256.726135 371.329926,237.603302   C394.633606,219.761978 420.682892,207.714828 449.447906,202.527283   C517.100403,190.326706 577.521790,206.045410 629.969666,251.055008   C639.769104,259.464691 648.093079,269.188904 656.189697,279.144073   C658.014771,281.388123 659.535706,282.721558 662.832275,281.778595   C700.198059,271.090240 732.659119,296.725800 738.152588,332.772888   C743.424561,367.366882 730.792847,395.445892 703.288635,417.357330  M378.416321,712.932861   C395.739532,697.853271 403.557343,679.064087 400.837158,656.047485   C396.840790,622.232483 366.703918,599.360413 335.641724,601.103149   C300.476776,603.075989 272.142487,636.521973 277.103668,671.386719   C284.231323,721.475891 337.654449,743.744690 378.416321,712.932861  z" class="outline p2" pathLength="1000"/>
<path d="M703.288635,417.357330   C686.869446,428.939209 669.117798,434.578278 649.192200,434.445129   C599.531555,434.113281 549.867310,434.346344 500.204498,434.293152   C488.290863,434.280365 478.135010,426.842865 475.777863,416.679993   C472.053406,400.621948 483.280731,386.759521 500.273926,386.724457   C537.604309,386.647491 574.934937,386.705780 612.265503,386.708679   C618.431702,386.709167 624.598816,386.640594 630.763916,386.723389   C642.630554,386.882751 654.153564,386.811859 666.001160,390.819336   C683.967224,396.896484 699.450256,389.597900 711.266296,375.424164   C725.187805,358.724823 725.622192,332.476227 712.912354,314.830139   C694.502991,289.270935 657.060059,292.015869 641.309814,320.129242   C638.121033,325.821045 635.711914,331.828949 635.100952,338.445862   C634.938721,340.203247 634.742065,342.057434 633.549500,343.641724   C631.199707,343.056244 630.813232,340.835785 629.836243,339.233459   C614.837524,314.633698 596.718445,292.853302 572.616211,276.629089   C550.742310,261.904816 526.657104,253.655991 500.208710,252.012070   C466.291382,249.903915 435.353668,257.969574 408.304962,278.716217   C383.805756,297.507416 369.089600,322.438843 365.246979,353.231842   C360.323090,392.689850 372.334259,426.201111 401.874451,453.053223   C411.667999,461.955597 423.401672,468.148621 434.635834,474.986877   C464.798096,493.346588 495.767426,510.425415 524.565308,530.953796   C546.057678,546.274597 565.155457,563.992554 577.741821,587.697571   C590.806519,612.303589 596.360229,638.379883 593.490173,666.272217   C590.615601,694.208618 580.168884,718.695984 561.384949,739.549683   C540.751404,762.456848 514.892334,776.089355 484.658325,781.014282   C443.273895,787.755493 404.613922,780.375854 370.234802,755.720337   C362.751465,750.353516 356.216675,748.119019 346.824188,748.989563   C298.673035,753.453003 260.887360,718.919617 255.179398,675.511353   C250.960266,643.425232 262.185577,616.013245 287.911682,596.190857   C333.842987,560.800049 398.838074,580.411133 418.090820,635.075195   C426.391724,658.643860 424.582794,681.929871 413.378113,704.384949   C409.794342,711.567139 410.079102,712.849731 416.915375,716.687012   C458.742310,740.164917 515.717529,725.006775 533.913818,677.453491   C543.897644,651.362183 538.887268,627.354004 521.223083,605.967773   C509.475067,591.744263 494.178253,581.843384 478.760193,572.200928   C448.675537,553.385986 417.641418,536.119995 388.030090,516.526550   C358.368134,496.899658 334.379700,472.251770 319.659485,439.436523   C311.549103,421.356323 307.140289,402.374542 305.575897,382.566772   C303.593964,357.473114 307.746887,333.391541 316.807434,310.205475   C328.201843,281.046997 346.352386,256.726135 371.329926,237.603302   C394.633606,219.761978 420.682892,207.714828 449.447906,202.527283   C517.100403,190.326706 577.521790,206.045410 629.969666,251.055008   C639.769104,259.464691 648.093079,269.188904 656.189697,279.144073   C658.014771,281.388123 659.535706,282.721558 662.832275,281.778595   C700.198059,271.090240 732.659119,296.725800 738.152588,332.772888   C743.424561,367.366882 730.792847,395.445892 703.288635,417.357330  M378.416321,712.932861   C395.739532,697.853271 403.557343,679.064087 400.837158,656.047485   C396.840790,622.232483 366.703918,599.360413 335.641724,601.103149   C300.476776,603.075989 272.142487,636.521973 277.103668,671.386719   C284.231323,721.475891 337.654449,743.744690 378.416321,712.932861  z" class="fillshape p2"/>
<path d="M653.000000,487.026794   C697.321167,487.019562 741.142395,487.006042 784.963562,487.012848   C791.161072,487.013824 797.167725,487.527313 802.730347,490.937653   C811.483093,496.303772 816.302490,505.943207 814.725891,515.968140   C813.107483,526.259094 805.516113,534.281128 795.255920,536.249512   C792.172119,536.841125 788.982178,537.111511 785.839111,537.125549   C764.178894,537.222473 742.518066,537.199402 720.857483,537.243347   C712.518005,537.260254 712.248596,537.559509 712.248718,546.099243   C712.249390,602.416992 712.195557,658.734924 712.284302,715.052490   C712.330994,744.685181 699.833313,768.472717 678.270447,787.816711   C647.108337,815.771973 609.583008,829.672302 568.895325,836.392639   C558.848145,838.052185 548.730896,838.608948 538.608093,839.275757   C537.134583,839.372864 535.620850,839.558105 534.026306,838.636475   C534.897278,835.932617 537.458984,836.345337 539.267029,835.822632   C582.534668,823.312866 617.237305,798.919006 642.165710,761.233704   C651.828613,746.625916 656.797546,730.451233 656.750610,712.702698   C656.602173,656.551941 656.702454,600.400513 656.701416,544.249390   C656.701294,537.240906 656.686890,537.226929 649.841431,537.221436   C621.349365,537.198425 592.857239,537.205505 564.365234,537.158508   C550.389893,537.135437 540.604614,529.989136 537.583679,517.725220   C533.475464,501.047180 546.038757,486.998413 565.024780,487.008972   C594.183167,487.025177 623.341614,487.021973 653.000000,487.026794  z" class="outline p3" pathLength="1000"/>
<path d="M653.000000,487.026794   C697.321167,487.019562 741.142395,487.006042 784.963562,487.012848   C791.161072,487.013824 797.167725,487.527313 802.730347,490.937653   C811.483093,496.303772 816.302490,505.943207 814.725891,515.968140   C813.107483,526.259094 805.516113,534.281128 795.255920,536.249512   C792.172119,536.841125 788.982178,537.111511 785.839111,537.125549   C764.178894,537.222473 742.518066,537.199402 720.857483,537.243347   C712.518005,537.260254 712.248596,537.559509 712.248718,546.099243   C712.249390,602.416992 712.195557,658.734924 712.284302,715.052490   C712.330994,744.685181 699.833313,768.472717 678.270447,787.816711   C647.108337,815.771973 609.583008,829.672302 568.895325,836.392639   C558.848145,838.052185 548.730896,838.608948 538.608093,839.275757   C537.134583,839.372864 535.620850,839.558105 534.026306,838.636475   C534.897278,835.932617 537.458984,836.345337 539.267029,835.822632   C582.534668,823.312866 617.237305,798.919006 642.165710,761.233704   C651.828613,746.625916 656.797546,730.451233 656.750610,712.702698   C656.602173,656.551941 656.702454,600.400513 656.701416,544.249390   C656.701294,537.240906 656.686890,537.226929 649.841431,537.221436   C621.349365,537.198425 592.857239,537.205505 564.365234,537.158508   C550.389893,537.135437 540.604614,529.989136 537.583679,517.725220   C533.475464,501.047180 546.038757,486.998413 565.024780,487.008972   C594.183167,487.025177 623.341614,487.021973 653.000000,487.026794  z" class="fillshape p3"/>
<path d="M673.683411,315.189209   C690.805908,313.329773 704.854248,324.347565 706.335510,340.355621   C707.960388,357.916046 697.212402,371.282410 680.031372,372.555023   C669.587219,373.328613 661.129761,369.023438 655.328308,360.392365   C648.466064,350.182892 648.754700,339.406647 654.444946,328.765594   C658.456177,321.264526 665.019348,317.035431 673.683411,315.189209  z" class="outline p4" pathLength="1000"/>
<path d="M673.683411,315.189209   C690.805908,313.329773 704.854248,324.347565 706.335510,340.355621   C707.960388,357.916046 697.212402,371.282410 680.031372,372.555023   C669.587219,373.328613 661.129761,369.023438 655.328308,360.392365   C648.466064,350.182892 648.754700,339.406647 654.444946,328.765594   C658.456177,321.264526 665.019348,317.035431 673.683411,315.189209  z" class="fillshape p4"/>
<path d="M322.534546,627.302063   C347.395355,616.299866 372.808411,631.982788 378.369385,654.999573   C382.320068,671.351257 375.136871,689.292603 360.695038,698.263489   C345.630798,707.621094 326.482758,706.306824 313.250305,695.006958   C299.510620,683.274048 295.269806,664.689697 302.532898,647.849548   C306.521637,638.601074 313.199493,631.911804 322.534546,627.302063  z" class="outline p5" pathLength="1000"/>
<path d="M322.534546,627.302063   C347.395355,616.299866 372.808411,631.982788 378.369385,654.999573   C382.320068,671.351257 375.136871,689.292603 360.695038,698.263489   C345.630798,707.621094 326.482758,706.306824 313.250305,695.006958   C299.510620,683.274048 295.269806,664.689697 302.532898,647.849548   C306.521637,638.601074 313.199493,631.911804 322.534546,627.302063  z" class="fillshape p5"/>
</g></svg>
